<?xml version="1.0" encoding="utf-8"?>
<!-- Generator: Adobe Illustrator 19.2.0, SVG Export Plug-In . SVG Version: 6.00 Build 0)  -->
<svg version="1.1" id="Layer_1" xmlns="http://www.w3.org/2000/svg" xmlns:xlink="http://www.w3.org/1999/xlink" x="0px" y="0px"
	 viewBox="0 0 62.3 66.2" style="enable-background:new 0 0 62.3 66.2;" xml:space="preserve">
<style type="text/css">
	.st0{fill:#A7A6A6;}
	.st1{fill:#E8E8E8;}
</style>
<g>
	<path class="st0" d="M62.3,66.2H62c0-14.5-3.6-30.8-9.5-43.5C46.3,9.4,38.5,1.8,31,1.8C14.4,1.8,0.3,37.2,0.3,66.2H0
		c0-14.6,3.5-30.9,9.4-43.6c6.1-13.4,14-21,21.6-21s15.5,7.7,21.8,21C58.7,35.4,62.3,51.7,62.3,66.2z"/>
</g>
<g>
	<path class="st1" d="M31.4,16.9V5.6c-5.4,0-10.6,4.3-15.1,11.1l7.4,4.9C26.1,18.7,28.7,16.9,31.4,16.9z"/>
</g>
<g>
	<path class="st1" d="M7.5,37.3l10.8-6c1.4-3.5,3.1-6.6,5-9l-7.4-4.9C12.6,22.5,9.7,30.1,7.5,37.3z"/>
</g>
<g>
	<path class="st1" d="M31.9,5.6L31.9,5.6v11.3c0,0,0,0,0.1,0c3.3,0,5.5,2.6,8.2,6.7l7-5.3C42.5,10.6,37.8,5.6,31.9,5.6z"/>
</g>
<g>
	<path class="st1" d="M55.5,37.6c-2-7-4.7-13.5-7.9-18.7l-7,5.3c1.5,2.2,2.8,4.8,3.9,7.7L55.5,37.6z"/>
</g>
</svg>
